<?xml version="1.0" encoding="utf-8"?>

<!DOCTYPE svg PUBLIC "-//W3C//DTD SVG 1.1//EN" "http://www.w3.org/Graphics/SVG/1.1/DTD/svg11.dtd">
<!-- Uploaded to: SVG Repo, www.svgrepo.com, Generator: SVG Repo Mixer Tools -->
<svg height="800px" width="800px" version="1.1" id="_x32_" xmlns="http://www.w3.org/2000/svg" xmlns:xlink="http://www.w3.org/1999/xlink" 
	 viewBox="0 0 512 512"  xml:space="preserve">
<style type="text/css">
	.st0{fill:#000000;}
</style>
<g>
	<path class="st0" d="M399.151,0.039c-35.093-1.211-64.489,26.244-65.692,61.337c-1.219,35.093,26.245,64.507,61.33,65.718
		c35.084,1.21,64.498-26.262,65.699-61.347C461.708,30.663,434.235,1.249,399.151,0.039z"/>
	<path class="st0" d="M382.245,153.356c-24.019-9.49-51.188,2.279-60.661,26.324v-0.027l-50.761,126.788l-99.12-29.164
		c-21.464-8.173-45.464,2.092-54.358,23.28L54.021,466.845c-6.961,16.56,0.828,35.646,17.414,42.608
		c16.585,6.961,35.663-0.837,42.625-17.404l65.78-120.655l76.24,30.17c45.17,18.606,77.068,0,95.665-45.179l56.833-142.35
		C418.059,190.007,406.29,162.846,382.245,153.356z"/>
</g>
</svg>